<svg width="16" height="17" viewBox="0 0 16 17" fill="none" xmlns="http://www.w3.org/2000/svg">
<path d="M14.354 5.65383L6.35403 13.6538C6.30759 13.7003 6.25245 13.7372 6.19175 13.7624C6.13105 13.7875 6.06599 13.8005 6.00028 13.8005C5.93457 13.8005 5.86951 13.7875 5.80881 13.7624C5.74811 13.7372 5.69296 13.7003 5.64653 13.6538L2.14653 10.1538C2.05271 10.06 2 9.93276 2 9.80008C2 9.6674 2.05271 9.54015 2.14653 9.44633C2.24035 9.35251 2.3676 9.2998 2.50028 9.2998C2.63296 9.2998 2.76021 9.35251 2.85403 9.44633L6.00028 12.5932L13.6465 4.94633C13.7403 4.85251 13.8676 4.7998 14.0003 4.7998C14.133 4.7998 14.2602 4.85251 14.354 4.94633C14.4478 5.04015 14.5006 5.1674 14.5006 5.30008C14.5006 5.43276 14.4478 5.56001 14.354 5.65383Z" fill="#343330"/>
</svg>
